<?xml version="1.0" encoding="utf-8"?>
<!-- Generator: Adobe Illustrator 26.5.0, SVG Export Plug-In . SVG Version: 6.00 Build 0)  -->
<svg version="1.1" id="Layer_1" xmlns="http://www.w3.org/2000/svg" xmlns:xlink="http://www.w3.org/1999/xlink" x="0px" y="0px"
	 viewBox="0 0 286.6 306.5" style="enable-background:new 0 0 286.6 306.5;" xml:space="preserve">
<style type="text/css">
	.st0{fill:#FFFFFF;}
</style>
<g>
	<path class="st0" d="M98.2,140.1l-67.8-89v89H0V0.1h28.4L94,86.3V0.1h30.4v140H98.2z"/>
</g>
<g>
	<path class="st0" d="M89.1,306.1l-31.2-46.6H32.7v46.6h-32V160.5h66.6c17.3,0,30.8,4.2,40.5,12.7s14.5,20.2,14.5,35.4v0.4
		c0,11.8-2.9,21.4-8.6,28.8c-5.8,7.4-13.3,12.9-22.6,16.3l35.6,52L89.1,306.1L89.1,306.1z M89.7,210.2c0-6.9-2.2-12.1-6.7-15.6
		c-4.4-3.5-10.6-5.2-18.5-5.2H32.7v41.8h32.4c7.9,0,14-1.9,18.2-5.6c4.2-3.7,6.3-8.7,6.3-15L89.7,210.2L89.7,210.2z"/>
</g>
<circle class="st0" cx="213.1" cy="236.5" r="70"/>
<path class="st0" d="M216.1,28.5c23.2,0,42,18.8,42,42s-18.8,42-42,42s-42-18.8-42-42S192.9,28.5,216.1,28.5 M216.1,0.5
	c-38.7,0-70,31.3-70,70s31.3,70,70,70s70-31.3,70-70S254.8,0.5,216.1,0.5L216.1,0.5z"/>
</svg>
