<?xml version="1.0" encoding="utf-8"?>
<!-- Generator: Adobe Illustrator 26.5.0, SVG Export Plug-In . SVG Version: 6.00 Build 0)  -->
<svg version="1.1" id="Layer_1" xmlns="http://www.w3.org/2000/svg" xmlns:xlink="http://www.w3.org/1999/xlink" x="0px" y="0px"
	 viewBox="0 0 612 792" style="enable-background:new 0 0 612 792;" xml:space="preserve">
<style type="text/css">
	.st0{fill:#FFFFFF;}
	.st1{font-family:'Gotham-Bold';}
	.st2{font-size:200px;}
	.st3{font-size:208px;}
</style>
<rect x="107" y="197" class="st0" width="399" height="399"/>
<text transform="matrix(1 0 0 1 153.0957 387.5879)"><tspan x="0" y="0" class="st1 st2">N</tspan><tspan x="0" y="166" class="st1 st3">R</tspan></text>
<circle cx="383" cy="484" r="70"/>
<g>
	<path d="M386,276c23.16,0,42,18.84,42,42s-18.84,42-42,42s-42-18.84-42-42S362.84,276,386,276 M386,248c-38.66,0-70,31.34-70,70
		s31.34,70,70,70s70-31.34,70-70S424.66,248,386,248L386,248z"/>
</g>
</svg>
